<svg x="0" y="0" viewBox="0 0 100 100" xmlns="http://www.w3.org/2000/svg"><circle fill="#dd00dd40" cx="10.245819412077376" cy="39.53880851571233" r="4"></circle><circle fill="#dd00dd40" cx="89.65442237308656" cy="39.53880851571233" r="4"></circle><circle fill="#dd00dd40" cx="41.380991793180264" cy="22.22115470519109" r="4"></circle><circle fill="#dd00dd40" cx="58.51924999198366" cy="22.22115470519109" r="4"></circle><circle fill="#dd00dd40" cx="9.039195209598152" cy="30.795119507871256" r="4"></circle><circle fill="#dd00dd40" cx="90.8610465755658" cy="30.795119507871256" r="4"></circle><circle fill="#dd00dd40" cx="28.05541864515184" cy="67.51268960428764" r="4"></circle><circle fill="#dd00dd40" cx="71.84482314001208" cy="67.51268960428764" r="4"></circle><circle fill="#dd00dd40" cx="36.00725355491769" cy="78.75181338872942" r="4"></circle><circle fill="#dd00dd40" cx="63.99274644508231" cy="78.75181338872942" r="4"></circle><circle fill="#dd00dd40" cx="24.97385152047137" cy="51.27406461092006" r="4"></circle><circle fill="#dd00dd40" cx="74.92639026469256" cy="51.27406461092006" r="4"></circle><circle fill="#dd00dd40" cx="28.1334624807373" cy="66.25302231454904" r="4"></circle><circle fill="#dd00dd40" cx="71.8665375192627" cy="66.25302231454904" r="4"></circle><circle fill="#dd00dd40" cx="11.725519252152804" cy="27.7252170206979" r="4"></circle><circle fill="#dd00dd40" cx="88.27448074784719" cy="27.7252170206979" r="4"></circle><circle fill="#dd00dd40" cx="25.359586195799913" cy="90.74758214836076" r="4"></circle><circle fill="#dd00dd40" cx="74.6404138042001" cy="90.74758214836076" r="4"></circle><circle fill="#dd00dd40" cx="38.99274644508231" cy="79.49818661127058" r="4"></circle><circle fill="#dd00dd40" cx="61.00725355491769" cy="79.49818661127058" r="4"></circle><circle fill="#dd00dd40" cx="25.390413804200087" cy="90.75725355491768" r="4"></circle><circle fill="#dd00dd40" cx="74.6095861957999" cy="90.75725355491768" r="4"></circle><circle fill="#dd00dd40" cx="13.30048793727142" cy="52.883422245399686" r="4"></circle><circle fill="#dd00dd40" cx="86.5997538478925" cy="52.883422245399686" r="4"></circle><circle fill="#dd00dd40" cx="28.107772807070493" cy="66.25362677745883" r="4"></circle><circle fill="#dd00dd40" cx="71.89222719292951" cy="66.25362677745883" r="4"></circle><circle fill="#dd00dd40" cx="16.63271236077951" cy="40.96997946429374" r="4"></circle><circle fill="#dd00dd40" cx="83.2675294243844" cy="40.96997946429374" r="4"></circle><circle fill="#dd00dd40" cx="23.231944149783978" cy="90.9916642754404" r="4"></circle><circle fill="#dd00dd40" cx="76.66829763537996" cy="90.9916642754404" r="4"></circle><circle fill="#dd00dd40" cx="25.699712864228797" cy="54.029783740749366" r="4"></circle><circle fill="#dd00dd40" cx="74.20052892093513" cy="54.029783740749366" r="4"></circle><circle fill="#0000dd40" cx="10.245819412077376" cy="39.53880851571233" r="3"></circle><circle fill="#0000dd40" cx="89.65442237308656" cy="39.53880851571233" r="3"></circle><circle fill="#0000dd40" cx="41.380991793180264" cy="22.22115470519109" r="3"></circle><circle fill="#0000dd40" cx="58.51924999198366" cy="22.22115470519109" r="3"></circle><circle fill="#0000dd40" cx="9.039195209598152" cy="30.795119507871256" r="3"></circle><circle fill="#0000dd40" cx="90.8610465755658" cy="30.795119507871256" r="3"></circle><circle fill="#0000dd40" cx="28.05541864515184" cy="67.51268960428764" r="3"></circle><circle fill="#0000dd40" cx="71.84482314001208" cy="67.51268960428764" r="3"></circle><circle fill="#0000dd40" cx="36.00725355491769" cy="78.75181338872942" r="3"></circle><circle fill="#0000dd40" cx="63.99274644508231" cy="78.75181338872942" r="3"></circle><circle fill="#0000dd40" cx="24.97385152047137" cy="51.27406461092006" r="3"></circle><circle fill="#0000dd40" cx="74.92639026469256" cy="51.27406461092006" r="3"></circle><circle fill="#0000dd40" cx="28.1334624807373" cy="66.25302231454904" r="3"></circle><circle fill="#0000dd40" cx="71.8665375192627" cy="66.25302231454904" r="3"></circle><circle fill="#0000dd40" cx="11.725519252152804" cy="27.7252170206979" r="3"></circle><circle fill="#0000dd40" cx="88.27448074784719" cy="27.7252170206979" r="3"></circle><circle fill="#0000dd40" cx="25.359586195799913" cy="90.74758214836076" r="3"></circle><circle fill="#0000dd40" cx="74.6404138042001" cy="90.74758214836076" r="3"></circle><circle fill="#0000dd40" cx="38.99274644508231" cy="79.49818661127058" r="3"></circle><circle fill="#0000dd40" cx="61.00725355491769" cy="79.49818661127058" r="3"></circle><circle fill="#0000dd40" cx="25.390413804200087" cy="90.75725355491768" r="3"></circle><circle fill="#0000dd40" cx="74.6095861957999" cy="90.75725355491768" r="3"></circle><circle fill="#0000dd40" cx="13.30048793727142" cy="52.883422245399686" r="3"></circle><circle fill="#0000dd40" cx="86.5997538478925" cy="52.883422245399686" r="3"></circle><circle fill="#0000dd40" cx="28.107772807070493" cy="66.25362677745883" r="3"></circle><circle fill="#0000dd40" cx="71.89222719292951" cy="66.25362677745883" r="3"></circle><circle fill="#0000dd40" cx="16.63271236077951" cy="40.96997946429374" r="3"></circle><circle fill="#0000dd40" cx="83.2675294243844" cy="40.96997946429374" r="3"></circle><circle fill="#0000dd40" cx="23.231944149783978" cy="90.9916642754404" r="3"></circle><circle fill="#0000dd40" cx="76.66829763537996" cy="90.9916642754404" r="3"></circle><circle fill="#0000dd40" cx="25.699712864228797" cy="54.029783740749366" r="3"></circle><circle fill="#0000dd40" cx="74.20052892093513" cy="54.029783740749366" r="3"></circle></svg>